<?xml version="1.0" encoding="UTF-8" standalone="no"?><svg xmlns="http://www.w3.org/2000/svg" xmlns:xlink="http://www.w3.org/1999/xlink" contentScriptType="application/ecmascript" contentStyleType="text/css" height="864px" preserveAspectRatio="none" style="width:516px;height:864px;background:#FFFFFF;" version="1.1" viewBox="0 0 516 864" width="516px" zoomAndPan="magnify"><defs><filter height="300%" id="f1n2bg607yag4o" width="300%" x="-1" y="-1"><feGaussianBlur result="blurOut" stdDeviation="2.0"/><feColorMatrix in="blurOut" result="blurOut2" type="matrix" values="0 0 0 0 0 0 0 0 0 0 0 0 0 0 0 0 0 0 .4 0"/><feOffset dx="4.0" dy="4.0" in="blurOut2" result="blurOut3"/><feBlend in="SourceGraphic" in2="blurOut3" mode="normal"/></filter></defs><g><ellipse cx="240" cy="20" fill="#000000" filter="url(#f1n2bg607yag4o)" rx="10" ry="10" style="stroke:none;stroke-width:1.0;"/><rect fill="#FEFECE" filter="url(#f1n2bg607yag4o)" height="33.9688" rx="12.5" ry="12.5" style="stroke:#A80036;stroke-width:1.5;" width="159" x="160.5" y="50"/><text fill="#000000" font-family="sans-serif" font-size="12" lengthAdjust="spacing" textLength="139" x="170.5" y="71.1387">OSS components JSON</text><rect fill="#FEFECE" filter="url(#f1n2bg607yag4o)" height="33.9688" rx="12.5" ry="12.5" style="stroke:#A80036;stroke-width:1.5;" width="273" x="103.5" y="147.9688"/><text fill="#000000" font-family="sans-serif" font-size="12" lengthAdjust="spacing" textLength="253" x="113.5" y="169.1074">Search component name in CPE dictionary</text><rect fill="#FEFECE" filter="url(#f1n2bg607yag4o)" height="33.9688" rx="12.5" ry="12.5" style="stroke:#A80036;stroke-width:1.5;" width="218" x="131" y="255.9063"/><text fill="#000000" font-family="sans-serif" font-size="12" lengthAdjust="spacing" textLength="198" x="141" y="277.0449">break cpe name string into array</text><rect fill="#FEFECE" filter="url(#f1n2bg607yag4o)" height="33.9688" rx="12.5" ry="12.5" style="stroke:#A80036;stroke-width:1.5;" width="440" x="20" y="309.875"/><text fill="#000000" font-family="sans-serif" font-size="12" lengthAdjust="spacing" textLength="420" x="30" y="331.0137">Verification - component name &amp; version against cpe name &amp; version</text><rect fill="#FEFECE" filter="url(#f1n2bg607yag4o)" height="33.9688" rx="12.5" ry="12.5" style="stroke:#A80036;stroke-width:1.5;" width="436" x="22" y="363.8438"/><text fill="#000000" font-family="sans-serif" font-size="12" lengthAdjust="spacing" textLength="416" x="32" y="384.9824">Validation - string distance between component name and cpe name</text><polygon fill="#FEFECE" filter="url(#f1n2bg607yag4o)" points="174,423.2773,306,423.2773,318,435.2773,306,447.2773,174,447.2773,162,435.2773,174,423.2773" style="stroke:#A80036;stroke-width:1.5;"/><text fill="#000000" font-family="sans-serif" font-size="11" lengthAdjust="spacing" textLength="21" x="244" y="457.4878">yes</text><text fill="#000000" font-family="sans-serif" font-size="11" lengthAdjust="spacing" textLength="132" x="174" y="439.0854">Verfication&amp;Validation?</text><rect fill="#FEFECE" filter="url(#f1n2bg607yag4o)" height="33.9688" rx="12.5" ry="12.5" style="stroke:#A80036;stroke-width:1.5;" width="92" x="194" y="201.9375"/><text fill="#000000" font-family="sans-serif" font-size="12" lengthAdjust="spacing" textLength="72" x="204" y="223.0762">CPE results?</text><polygon fill="#FEFECE" filter="url(#f1n2bg607yag4o)" points="207,510.6797,273,510.6797,285,522.6797,273,534.6797,207,534.6797,195,522.6797,207,510.6797" style="stroke:#A80036;stroke-width:1.5;"/><text fill="#000000" font-family="sans-serif" font-size="11" lengthAdjust="spacing" textLength="66" x="207" y="526.4878">more result</text><text fill="#000000" font-family="sans-serif" font-size="11" lengthAdjust="spacing" textLength="21" x="285" y="520.0854">yes</text><polygon fill="#FEFECE" filter="url(#f1n2bg607yag4o)" points="240,554.6797,252,566.6797,240,578.6797,228,566.6797,240,554.6797" style="stroke:#A80036;stroke-width:1.5;"/><rect fill="#FEFECE" filter="url(#f1n2bg607yag4o)" height="33.9688" rx="12.5" ry="12.5" style="stroke:#A80036;stroke-width:1.5;" width="271" x="104.5" y="598.6797"/><text fill="#000000" font-family="sans-serif" font-size="12" lengthAdjust="spacing" textLength="251" x="114.5" y="619.8184">Search vulnerability in CVE with cpe name</text><polygon fill="#FEFECE" filter="url(#f1n2bg607yag4o)" points="240,103.9688,252,115.9688,240,127.9688,228,115.9688,240,103.9688" style="stroke:#A80036;stroke-width:1.5;"/><polygon fill="#FEFECE" filter="url(#f1n2bg607yag4o)" points="187.5,652.6484,292.5,652.6484,304.5,664.6484,292.5,676.6484,187.5,676.6484,175.5,664.6484,187.5,652.6484" style="stroke:#A80036;stroke-width:1.5;"/><text fill="#000000" font-family="sans-serif" font-size="11" lengthAdjust="spacing" textLength="105" x="187.5" y="668.4565">OSS components?</text><text fill="#000000" font-family="sans-serif" font-size="11" lengthAdjust="spacing" textLength="21" x="304.5" y="662.0542">yes</text><rect fill="#FEFECE" filter="url(#f1n2bg607yag4o)" height="33.9688" rx="12.5" ry="12.5" style="stroke:#A80036;stroke-width:1.5;" width="200" x="140" y="718.0474"/><text fill="#000000" font-family="sans-serif" font-size="12" lengthAdjust="spacing" textLength="180" x="150" y="739.186">Generate json file with results</text><rect fill="#FEFECE" filter="url(#f1n2bg607yag4o)" height="33.9688" rx="12.5" ry="12.5" style="stroke:#A80036;stroke-width:1.5;" width="273" x="103.5" y="772.0161"/><text fill="#000000" font-family="sans-serif" font-size="12" lengthAdjust="spacing" textLength="253" x="113.5" y="793.1548">Save as a container in Azure data storage</text><ellipse cx="240" cy="836.9849" fill="#FFFFFF" filter="url(#f1n2bg607yag4o)" rx="11" ry="11" style="stroke:#000000;stroke-width:1.0;"/><ellipse cx="240" cy="836.9849" fill="#000000" rx="6" ry="6" style="stroke:#7F7F7F;stroke-width:1.0;"/><line style="stroke:#A80036;stroke-width:1.5;" x1="240" x2="240" y1="30" y2="50"/><polygon fill="#A80036" points="236,40,240,50,244,40,240,44" style="stroke:#A80036;stroke-width:1.0;"/><line style="stroke:#A80036;stroke-width:1.5;" x1="240" x2="240" y1="289.875" y2="309.875"/><polygon fill="#A80036" points="236,299.875,240,309.875,244,299.875,240,303.875" style="stroke:#A80036;stroke-width:1.0;"/><line style="stroke:#A80036;stroke-width:1.5;" x1="240" x2="240" y1="343.8438" y2="363.8438"/><polygon fill="#A80036" points="236,353.8438,240,363.8438,244,353.8438,240,357.8438" style="stroke:#A80036;stroke-width:1.0;"/><line style="stroke:#A80036;stroke-width:1.5;" x1="240" x2="240" y1="447.2773" y2="471.6797"/><line style="stroke:#A80036;stroke-width:1.5;" x1="240" x2="10" y1="471.6797" y2="471.6797"/><line style="stroke:#A80036;stroke-width:1.5;" x1="10" x2="10" y1="471.6797" y2="566.6797"/><line style="stroke:#A80036;stroke-width:1.5;" x1="10" x2="228" y1="566.6797" y2="566.6797"/><polygon fill="#A80036" points="218,562.6797,228,566.6797,218,570.6797,222,566.6797" style="stroke:#A80036;stroke-width:1.0;"/><line style="stroke:#A80036;stroke-width:1.5;" x1="318" x2="330" y1="435.2773" y2="435.2773"/><polygon fill="#A80036" points="326,458.6797,330,468.6797,334,458.6797,330,462.6797" style="stroke:#A80036;stroke-width:1.5;"/><line style="stroke:#A80036;stroke-width:1.5;" x1="330" x2="330" y1="435.2773" y2="490.6797"/><line style="stroke:#A80036;stroke-width:1.5;" x1="330" x2="240" y1="490.6797" y2="490.6797"/><line style="stroke:#A80036;stroke-width:1.5;" x1="240" x2="240" y1="490.6797" y2="510.6797"/><polygon fill="#A80036" points="236,500.6797,240,510.6797,244,500.6797,240,504.6797" style="stroke:#A80036;stroke-width:1.0;"/><line style="stroke:#A80036;stroke-width:1.5;" x1="240" x2="240" y1="397.8125" y2="423.2773"/><polygon fill="#A80036" points="236,413.2773,240,423.2773,244,413.2773,240,417.2773" style="stroke:#A80036;stroke-width:1.0;"/><line style="stroke:#A80036;stroke-width:1.5;" x1="240" x2="240" y1="235.9063" y2="255.9063"/><polygon fill="#A80036" points="236,245.9063,240,255.9063,244,245.9063,240,249.9063" style="stroke:#A80036;stroke-width:1.0;"/><line style="stroke:#A80036;stroke-width:1.5;" x1="285" x2="472" y1="522.6797" y2="522.6797"/><polygon fill="#A80036" points="468,376.2695,472,366.2695,476,376.2695,472,372.2695" style="stroke:#A80036;stroke-width:1.5;"/><line style="stroke:#A80036;stroke-width:1.5;" x1="472" x2="472" y1="218.9219" y2="522.6797"/><line style="stroke:#A80036;stroke-width:1.5;" x1="472" x2="286" y1="218.9219" y2="218.9219"/><polygon fill="#A80036" points="296,214.9219,286,218.9219,296,222.9219,292,218.9219" style="stroke:#A80036;stroke-width:1.0;"/><line style="stroke:#A80036;stroke-width:1.5;" x1="240" x2="240" y1="534.6797" y2="554.6797"/><polygon fill="#A80036" points="236,544.6797,240,554.6797,244,544.6797,240,548.6797" style="stroke:#A80036;stroke-width:1.0;"/><line style="stroke:#A80036;stroke-width:1.5;" x1="240" x2="240" y1="181.9375" y2="201.9375"/><polygon fill="#A80036" points="236,191.9375,240,201.9375,244,191.9375,240,195.9375" style="stroke:#A80036;stroke-width:1.0;"/><line style="stroke:#A80036;stroke-width:1.5;" x1="240" x2="240" y1="578.6797" y2="598.6797"/><polygon fill="#A80036" points="236,588.6797,240,598.6797,244,588.6797,240,592.6797" style="stroke:#A80036;stroke-width:1.0;"/><line style="stroke:#A80036;stroke-width:1.5;" x1="240" x2="240" y1="127.9688" y2="147.9688"/><polygon fill="#A80036" points="236,137.9688,240,147.9688,244,137.9688,240,141.9688" style="stroke:#A80036;stroke-width:1.0;"/><line style="stroke:#A80036;stroke-width:1.5;" x1="304.5" x2="490" y1="664.6484" y2="664.6484"/><polygon fill="#A80036" points="486,403.2773,490,393.2773,494,403.2773,490,399.2773" style="stroke:#A80036;stroke-width:1.5;"/><line style="stroke:#A80036;stroke-width:1.5;" x1="490" x2="490" y1="115.9688" y2="664.6484"/><line style="stroke:#A80036;stroke-width:1.5;" x1="490" x2="252" y1="115.9688" y2="115.9688"/><polygon fill="#A80036" points="262,111.9688,252,115.9688,262,119.9688,258,115.9688" style="stroke:#A80036;stroke-width:1.0;"/><line style="stroke:#A80036;stroke-width:1.5;" x1="240" x2="240" y1="632.6484" y2="652.6484"/><polygon fill="#A80036" points="236,642.6484,240,652.6484,244,642.6484,240,646.6484" style="stroke:#A80036;stroke-width:1.0;"/><line style="stroke:#A80036;stroke-width:1.5;" x1="240" x2="240" y1="83.9688" y2="103.9688"/><polygon fill="#A80036" points="236,93.9688,240,103.9688,244,93.9688,240,97.9688" style="stroke:#A80036;stroke-width:1.0;"/><line style="stroke:#A80036;stroke-width:1.5;" x1="240" x2="240" y1="676.6484" y2="718.0474"/><polygon fill="#A80036" points="236,708.0474,240,718.0474,244,708.0474,240,712.0474" style="stroke:#A80036;stroke-width:1.0;"/><text fill="#000000" font-family="sans-serif" font-size="11" lengthAdjust="spacing" textLength="14" x="244" y="697.9531">no</text><line style="stroke:#A80036;stroke-width:1.5;" x1="240" x2="240" y1="752.0161" y2="772.0161"/><polygon fill="#A80036" points="236,762.0161,240,772.0161,244,762.0161,240,766.0161" style="stroke:#A80036;stroke-width:1.0;"/><line style="stroke:#A80036;stroke-width:1.5;" x1="240" x2="240" y1="805.9849" y2="825.9849"/><polygon fill="#A80036" points="236,815.9849,240,825.9849,244,815.9849,240,819.9849" style="stroke:#A80036;stroke-width:1.0;"/><!--MD5=[0563fdb1b330dfdb118a9d42bb8907c4]
@startuml
start
:OSS components JSON;
repeat 
 :Search component name in CPE dictionary;
 repeat :CPE results?;
  :break cpe name string into array;
  :Verification - component name & version against cpe name & version;
  :Validation - string distance between component name and cpe name;
  if (Verfication&Validation?) then (yes)
   break
  endif
 repeat while (more result) is (yes)
:Search vulnerability in CVE with cpe name;
repeat while (OSS components?) is (yes)
 ->no;
:Generate json file with results;
:Save as a container in Azure data storage;
stop
@enduml

PlantUML version 1.2021.10beta5(Unknown compile time)
(GPL source distribution)
Java Runtime: Java(TM) SE Runtime Environment
JVM: Java HotSpot(TM) 64-Bit Server VM
Default Encoding: UTF-8
Language: en
Country: US
--></g></svg>