<?xml version="1.0" encoding="UTF-8" standalone="no"?><svg xmlns="http://www.w3.org/2000/svg" xmlns:xlink="http://www.w3.org/1999/xlink" contentScriptType="application/ecmascript" contentStyleType="text/css" height="542px" preserveAspectRatio="none" style="width:1044px;height:542px;background:#FFFFFF;" version="1.1" viewBox="0 0 1044 542" width="1044px" zoomAndPan="magnify"><defs><filter height="300%" id="f1j8abkxqu7bnr" width="300%" x="-1" y="-1"><feGaussianBlur result="blurOut" stdDeviation="2.0"/><feColorMatrix in="blurOut" result="blurOut2" type="matrix" values="0 0 0 0 0 0 0 0 0 0 0 0 0 0 0 0 0 0 .4 0"/><feOffset dx="4.0" dy="4.0" in="blurOut2" result="blurOut3"/><feBlend in="SourceGraphic" in2="blurOut3" mode="normal"/></filter></defs><g><line style="stroke:#A80036;stroke-width:1.0;stroke-dasharray:5.0,5.0;" x1="23" x2="23" y1="88.2969" y2="457.8906"/><line style="stroke:#A80036;stroke-width:1.0;stroke-dasharray:5.0,5.0;" x1="149.5" x2="149.5" y1="88.2969" y2="457.8906"/><line style="stroke:#A80036;stroke-width:1.0;stroke-dasharray:5.0,5.0;" x1="338.5" x2="338.5" y1="88.2969" y2="457.8906"/><line style="stroke:#A80036;stroke-width:1.0;stroke-dasharray:5.0,5.0;" x1="539.5" x2="539.5" y1="88.2969" y2="457.8906"/><line style="stroke:#A80036;stroke-width:1.0;stroke-dasharray:5.0,5.0;" x1="721.5" x2="721.5" y1="88.2969" y2="457.8906"/><line style="stroke:#A80036;stroke-width:1.0;stroke-dasharray:5.0,5.0;" x1="861.5" x2="861.5" y1="88.2969" y2="457.8906"/><line style="stroke:#A80036;stroke-width:1.0;stroke-dasharray:5.0,5.0;" x1="991.5" x2="991.5" y1="88.2969" y2="457.8906"/><text fill="#000000" font-family="sans-serif" font-size="14" lengthAdjust="spacing" textLength="31" x="5" y="84.9951">User</text><ellipse cx="23.5" cy="15" fill="#FEFECE" filter="url(#f1j8abkxqu7bnr)" rx="8" ry="8" style="stroke:#A80036;stroke-width:2.0;"/><path d="M23.5,23 L23.5,50 M10.5,31 L36.5,31 M23.5,50 L10.5,65 M23.5,50 L36.5,65 " fill="none" filter="url(#f1j8abkxqu7bnr)" style="stroke:#A80036;stroke-width:2.0;"/><text fill="#000000" font-family="sans-serif" font-size="14" lengthAdjust="spacing" textLength="31" x="5" y="469.8857">User</text><ellipse cx="23.5" cy="483.1875" fill="#FEFECE" filter="url(#f1j8abkxqu7bnr)" rx="8" ry="8" style="stroke:#A80036;stroke-width:2.0;"/><path d="M23.5,491.1875 L23.5,518.1875 M10.5,499.1875 L36.5,499.1875 M23.5,518.1875 L10.5,533.1875 M23.5,518.1875 L36.5,533.1875 " fill="none" filter="url(#f1j8abkxqu7bnr)" style="stroke:#A80036;stroke-width:2.0;"/><rect fill="#FEFECE" filter="url(#f1j8abkxqu7bnr)" height="30.2969" style="stroke:#A80036;stroke-width:1.5;" width="142" x="76.5" y="53"/><text fill="#000000" font-family="sans-serif" font-size="14" lengthAdjust="spacing" textLength="128" x="83.5" y="72.9951">Scanner Interface</text><rect fill="#FEFECE" filter="url(#f1j8abkxqu7bnr)" height="30.2969" style="stroke:#A80036;stroke-width:1.5;" width="142" x="76.5" y="456.8906"/><text fill="#000000" font-family="sans-serif" font-size="14" lengthAdjust="spacing" textLength="128" x="83.5" y="476.8857">Scanner Interface</text><rect fill="#FEFECE" filter="url(#f1j8abkxqu7bnr)" height="30.2969" style="stroke:#A80036;stroke-width:1.5;" width="208" x="232.5" y="53"/><text fill="#000000" font-family="sans-serif" font-size="14" lengthAdjust="spacing" textLength="194" x="239.5" y="72.9951">Scanned Projects Interface</text><rect fill="#FEFECE" filter="url(#f1j8abkxqu7bnr)" height="30.2969" style="stroke:#A80036;stroke-width:1.5;" width="208" x="232.5" y="456.8906"/><text fill="#000000" font-family="sans-serif" font-size="14" lengthAdjust="spacing" textLength="194" x="239.5" y="476.8857">Scanned Projects Interface</text><rect fill="#FEFECE" filter="url(#f1j8abkxqu7bnr)" height="30.2969" style="stroke:#A80036;stroke-width:1.5;" width="166" x="454.5" y="53"/><text fill="#000000" font-family="sans-serif" font-size="14" lengthAdjust="spacing" textLength="152" x="461.5" y="72.9951">Component Analyzer</text><rect fill="#FEFECE" filter="url(#f1j8abkxqu7bnr)" height="30.2969" style="stroke:#A80036;stroke-width:1.5;" width="166" x="454.5" y="456.8906"/><text fill="#000000" font-family="sans-serif" font-size="14" lengthAdjust="spacing" textLength="152" x="461.5" y="476.8857">Component Analyzer</text><rect fill="#FEFECE" filter="url(#f1j8abkxqu7bnr)" height="30.2969" style="stroke:#A80036;stroke-width:1.5;" width="171" x="634.5" y="53"/><text fill="#000000" font-family="sans-serif" font-size="14" lengthAdjust="spacing" textLength="157" x="641.5" y="72.9951">Component Evaluator</text><rect fill="#FEFECE" filter="url(#f1j8abkxqu7bnr)" height="30.2969" style="stroke:#A80036;stroke-width:1.5;" width="171" x="634.5" y="456.8906"/><text fill="#000000" font-family="sans-serif" font-size="14" lengthAdjust="spacing" textLength="157" x="641.5" y="476.8857">Component Evaluator</text><rect fill="#FEFECE" filter="url(#f1j8abkxqu7bnr)" height="30.2969" style="stroke:#A80036;stroke-width:1.5;" width="80" x="819.5" y="53"/><text fill="#000000" font-family="sans-serif" font-size="14" lengthAdjust="spacing" textLength="66" x="826.5" y="72.9951">Reporter</text><rect fill="#FEFECE" filter="url(#f1j8abkxqu7bnr)" height="30.2969" style="stroke:#A80036;stroke-width:1.5;" width="80" x="819.5" y="456.8906"/><text fill="#000000" font-family="sans-serif" font-size="14" lengthAdjust="spacing" textLength="66" x="826.5" y="476.8857">Reporter</text><rect fill="#FEFECE" filter="url(#f1j8abkxqu7bnr)" height="30.2969" style="stroke:#A80036;stroke-width:1.5;" width="82" x="948.5" y="53"/><text fill="#000000" font-family="sans-serif" font-size="14" lengthAdjust="spacing" textLength="68" x="955.5" y="72.9951">Database</text><rect fill="#FEFECE" filter="url(#f1j8abkxqu7bnr)" height="30.2969" style="stroke:#A80036;stroke-width:1.5;" width="82" x="948.5" y="456.8906"/><text fill="#000000" font-family="sans-serif" font-size="14" lengthAdjust="spacing" textLength="68" x="955.5" y="476.8857">Database</text><polygon fill="#A80036" points="137.5,115.4297,147.5,119.4297,137.5,123.4297,141.5,119.4297" style="stroke:#A80036;stroke-width:1.0;"/><line style="stroke:#A80036;stroke-width:1.0;" x1="23.5" x2="143.5" y1="119.4297" y2="119.4297"/><text fill="#000000" font-family="sans-serif" font-size="13" lengthAdjust="spacing" textLength="86" x="30.5" y="114.3638">Scan Projects</text><polygon fill="#A80036" points="137.5,144.5625,147.5,148.5625,137.5,152.5625,141.5,148.5625" style="stroke:#A80036;stroke-width:1.0;"/><line style="stroke:#A80036;stroke-width:1.0;" x1="23.5" x2="143.5" y1="148.5625" y2="148.5625"/><text fill="#000000" font-family="sans-serif" font-size="13" lengthAdjust="spacing" textLength="102" x="30.5" y="143.4966">Select Members</text><polygon fill="#A80036" points="34.5,173.6953,24.5,177.6953,34.5,181.6953,30.5,177.6953" style="stroke:#A80036;stroke-width:1.0;"/><line style="stroke:#A80036;stroke-width:1.0;" x1="28.5" x2="337.5" y1="177.6953" y2="177.6953"/><text fill="#000000" font-family="sans-serif" font-size="13" lengthAdjust="spacing" textLength="110" x="40.5" y="172.6294">showAllProjects()</text><polygon fill="#A80036" points="34.5,202.8281,24.5,206.8281,34.5,210.8281,30.5,206.8281" style="stroke:#A80036;stroke-width:1.0;"/><line style="stroke:#A80036;stroke-width:1.0;" x1="28.5" x2="337.5" y1="206.8281" y2="206.8281"/><text fill="#000000" font-family="sans-serif" font-size="13" lengthAdjust="spacing" textLength="88" x="40.5" y="201.7622">showProject()</text><polygon fill="#A80036" points="527.5,231.9609,537.5,235.9609,527.5,239.9609,531.5,235.9609" style="stroke:#A80036;stroke-width:1.0;"/><line style="stroke:#A80036;stroke-width:1.0;" x1="149.5" x2="533.5" y1="235.9609" y2="235.9609"/><text fill="#000000" font-family="sans-serif" font-size="13" lengthAdjust="spacing" textLength="162" x="156.5" y="230.895">extractOssComponents()</text><polygon fill="#A80036" points="710,261.0938,720,265.0938,710,269.0938,714,265.0938" style="stroke:#A80036;stroke-width:1.0;"/><line style="stroke:#A80036;stroke-width:1.0;" x1="539.5" x2="716" y1="265.0938" y2="265.0938"/><text fill="#000000" font-family="sans-serif" font-size="13" lengthAdjust="spacing" textLength="140" x="546.5" y="260.0278">sendComponentInfo()</text><polygon fill="#A80036" points="34.5,290.2266,24.5,294.2266,34.5,298.2266,30.5,294.2266" style="stroke:#A80036;stroke-width:1.0;"/><line style="stroke:#A80036;stroke-width:1.0;" x1="28.5" x2="860.5" y1="294.2266" y2="294.2266"/><text fill="#000000" font-family="sans-serif" font-size="13" lengthAdjust="spacing" textLength="159" x="40.5" y="289.1606">downloadProjectReport()</text><polygon fill="#A80036" points="872.5,319.3594,862.5,323.3594,872.5,327.3594,868.5,323.3594" style="stroke:#A80036;stroke-width:1.0;"/><line style="stroke:#A80036;stroke-width:1.0;" x1="866.5" x2="990.5" y1="323.3594" y2="323.3594"/><text fill="#000000" font-family="sans-serif" font-size="13" lengthAdjust="spacing" textLength="106" x="878.5" y="318.2935">getProjectData()</text><polygon fill="#A80036" points="979.5,348.4922,989.5,352.4922,979.5,356.4922,983.5,352.4922" style="stroke:#A80036;stroke-width:1.0;"/><line style="stroke:#A80036;stroke-width:1.0;" x1="722" x2="985.5" y1="352.4922" y2="352.4922"/><text fill="#000000" font-family="sans-serif" font-size="13" lengthAdjust="spacing" textLength="95" x="729" y="347.4263">createProject()</text><polygon fill="#A80036" points="349.5,377.625,339.5,381.625,349.5,385.625,345.5,381.625" style="stroke:#A80036;stroke-width:1.0;"/><line style="stroke:#A80036;stroke-width:1.0;" x1="343.5" x2="990.5" y1="381.625" y2="381.625"/><text fill="#000000" font-family="sans-serif" font-size="13" lengthAdjust="spacing" textLength="97" x="355.5" y="376.5591">getAllProjects()</text><polygon fill="#A80036" points="326.5,406.7578,336.5,410.7578,326.5,414.7578,330.5,410.7578" style="stroke:#A80036;stroke-width:1.0;"/><line style="stroke:#A80036;stroke-width:1.0;" x1="23.5" x2="332.5" y1="410.7578" y2="410.7578"/><text fill="#000000" font-family="sans-serif" font-size="13" lengthAdjust="spacing" textLength="78" x="30.5" y="405.6919">editProject()</text><polygon fill="#A80036" points="979.5,435.8906,989.5,439.8906,979.5,443.8906,983.5,439.8906" style="stroke:#A80036;stroke-width:1.0;"/><line style="stroke:#A80036;stroke-width:1.0;" x1="338.5" x2="985.5" y1="439.8906" y2="439.8906"/><text fill="#000000" font-family="sans-serif" font-size="13" lengthAdjust="spacing" textLength="99" x="345.5" y="434.8247">updateProject()</text><!--MD5=[49687f94504c4d85a2929f0068cd4a32]
@startuml
actor User as User
User -> "Scanner Interface": Scan Projects
User -> "Scanner Interface": Select Members
User <- "Scanned Projects Interface": showAllProjects()
User <- "Scanned Projects Interface": showProject()
"Scanner Interface" -> "Component Analyzer": extractOssComponents()
"Component Analyzer" -> "Component Evaluator": sendComponentInfo()
Reporter -> User: downloadProjectReport()
Database -> Reporter: getProjectData()
"Component Evaluator" -> Database: createProject()
"Scanned Projects Interface" <- Database: getAllProjects()

User -> "Scanned Projects Interface": editProject()
"Scanned Projects Interface" -> Database: updateProject()
@enduml

PlantUML version 1.2021.9beta2(Unknown compile time)
(GPL source distribution)
Java Runtime: Java(TM) SE Runtime Environment
JVM: Java HotSpot(TM) 64-Bit Server VM
Default Encoding: UTF-8
Language: en
Country: US
--></g></svg>