<?xml version="1.0" encoding="UTF-8" standalone="no"?><svg xmlns="http://www.w3.org/2000/svg" xmlns:xlink="http://www.w3.org/1999/xlink" contentScriptType="application/ecmascript" contentStyleType="text/css" height="422px" preserveAspectRatio="none" style="width:1771px;height:422px;background:#FFFFFF;" version="1.1" viewBox="0 0 1771 422" width="1771px" zoomAndPan="magnify"><defs><filter height="300%" id="f10owz0njl12bl" width="300%" x="-1" y="-1"><feGaussianBlur result="blurOut" stdDeviation="2.0"/><feColorMatrix in="blurOut" result="blurOut2" type="matrix" values="0 0 0 0 0 0 0 0 0 0 0 0 0 0 0 0 0 0 .4 0"/><feOffset dx="4.0" dy="4.0" in="blurOut2" result="blurOut3"/><feBlend in="SourceGraphic" in2="blurOut3" mode="normal"/></filter></defs><g><ellipse cx="875.5" cy="20" fill="#000000" filter="url(#f10owz0njl12bl)" rx="10" ry="10" style="stroke:none;stroke-width:1.0;"/><rect fill="#FEFECE" filter="url(#f10owz0njl12bl)" height="33.9688" rx="12.5" ry="12.5" style="stroke:#A80036;stroke-width:1.5;" width="183" x="784" y="50"/><text fill="#000000" font-family="sans-serif" font-size="12" lengthAdjust="spacing" textLength="163" x="794" y="71.1387">Drop project soruce folder</text><polygon fill="#FEFECE" filter="url(#f10owz0njl12bl)" points="76,159.6792,140,159.6792,152,171.6792,140,183.6792,76,183.6792,64,171.6792,76,159.6792" style="stroke:#A80036;stroke-width:1.5;"/><text fill="#000000" font-family="sans-serif" font-size="11" lengthAdjust="spacing" textLength="21" x="112" y="193.8896">yes</text><text fill="#000000" font-family="sans-serif" font-size="11" lengthAdjust="spacing" textLength="64" x="76" y="175.4873">.csproj file?</text><rect fill="#FEFECE" filter="url(#f10owz0njl12bl)" height="33.9688" rx="12.5" ry="12.5" style="stroke:#A80036;stroke-width:1.5;" width="194" x="11" y="216.4839"/><text fill="#000000" font-family="sans-serif" font-size="12" lengthAdjust="spacing" textLength="174" x="21" y="237.6226">GetOssFromCsprojConfigFile</text><polygon fill="#FEFECE" filter="url(#f10owz0njl12bl)" points="252,159.6792,354,159.6792,366,171.6792,354,183.6792,252,183.6792,240,171.6792,252,159.6792" style="stroke:#A80036;stroke-width:1.5;"/><text fill="#000000" font-family="sans-serif" font-size="11" lengthAdjust="spacing" textLength="21" x="307" y="193.8896">yes</text><text fill="#000000" font-family="sans-serif" font-size="11" lengthAdjust="spacing" textLength="102" x="252" y="175.4873">package.json file?</text><rect fill="#FEFECE" filter="url(#f10owz0njl12bl)" height="33.9688" rx="12.5" ry="12.5" style="stroke:#A80036;stroke-width:1.5;" width="176" x="215" y="216.4839"/><text fill="#000000" font-family="sans-serif" font-size="12" lengthAdjust="spacing" textLength="156" x="225" y="237.6226">GetOssFromJavascriptFile</text><polygon fill="#FEFECE" filter="url(#f10owz0njl12bl)" points="444.5,159.6792,530.5,159.6792,542.5,171.6792,530.5,183.6792,444.5,183.6792,432.5,171.6792,444.5,159.6792" style="stroke:#A80036;stroke-width:1.5;"/><text fill="#000000" font-family="sans-serif" font-size="11" lengthAdjust="spacing" textLength="21" x="491.5" y="193.8896">yes</text><text fill="#000000" font-family="sans-serif" font-size="11" lengthAdjust="spacing" textLength="86" x="444.5" y="175.4873">app.config file?</text><rect fill="#FEFECE" filter="url(#f10owz0njl12bl)" height="33.9688" rx="12.5" ry="12.5" style="stroke:#A80036;stroke-width:1.5;" width="173" x="401" y="216.4839"/><text fill="#000000" font-family="sans-serif" font-size="12" lengthAdjust="spacing" textLength="153" x="411" y="237.6226">GetOssFromTfsConfigFile</text><polygon fill="#FEFECE" filter="url(#f10owz0njl12bl)" points="606,159.6792,729,159.6792,741,171.6792,729,183.6792,606,183.6792,594,171.6792,606,159.6792" style="stroke:#A80036;stroke-width:1.5;"/><text fill="#000000" font-family="sans-serif" font-size="11" lengthAdjust="spacing" textLength="21" x="671.5" y="193.8896">yes</text><text fill="#000000" font-family="sans-serif" font-size="11" lengthAdjust="spacing" textLength="123" x="606" y="175.4873">requirements.txt file?</text><rect fill="#FEFECE" filter="url(#f10owz0njl12bl)" height="33.9688" rx="12.5" ry="12.5" style="stroke:#A80036;stroke-width:1.5;" width="156" x="589.5" y="216.4839"/><text fill="#000000" font-family="sans-serif" font-size="12" lengthAdjust="spacing" textLength="136" x="599.5" y="237.6226">GetPythonComponents</text><polygon fill="#FEFECE" filter="url(#f10owz0njl12bl)" points="791,159.6792,865,159.6792,877,171.6792,865,183.6792,791,183.6792,779,171.6792,791,159.6792" style="stroke:#A80036;stroke-width:1.5;"/><text fill="#000000" font-family="sans-serif" font-size="11" lengthAdjust="spacing" textLength="21" x="832" y="193.8896">yes</text><text fill="#000000" font-family="sans-serif" font-size="11" lengthAdjust="spacing" textLength="74" x="791" y="175.4873">Gemfile file?</text><rect fill="#FEFECE" filter="url(#f10owz0njl12bl)" height="33.9688" rx="12.5" ry="12.5" style="stroke:#A80036;stroke-width:1.5;" width="145" x="755.5" y="216.4839"/><text fill="#000000" font-family="sans-serif" font-size="12" lengthAdjust="spacing" textLength="125" x="765.5" y="237.6226">GetOssFromGemFile</text><polygon fill="#FEFECE" filter="url(#f10owz0njl12bl)" points="956,159.6792,1065,159.6792,1077,171.6792,1065,183.6792,956,183.6792,944,171.6792,956,159.6792" style="stroke:#A80036;stroke-width:1.5;"/><text fill="#000000" font-family="sans-serif" font-size="11" lengthAdjust="spacing" textLength="21" x="1014.5" y="193.8896">yes</text><text fill="#000000" font-family="sans-serif" font-size="11" lengthAdjust="spacing" textLength="109" x="956" y="175.4873">composer.lock file?</text><rect fill="#FEFECE" filter="url(#f10owz0njl12bl)" height="33.9688" rx="12.5" ry="12.5" style="stroke:#A80036;stroke-width:1.5;" width="180" x="920.5" y="216.4839"/><text fill="#000000" font-family="sans-serif" font-size="12" lengthAdjust="spacing" textLength="160" x="930.5" y="237.6226">GetOssFromComposerFile</text><polygon fill="#FEFECE" filter="url(#f10owz0njl12bl)" points="1154.5,159.6792,1248.5,159.6792,1260.5,171.6792,1248.5,183.6792,1154.5,183.6792,1142.5,171.6792,1154.5,159.6792" style="stroke:#A80036;stroke-width:1.5;"/><text fill="#000000" font-family="sans-serif" font-size="11" lengthAdjust="spacing" textLength="21" x="1205.5" y="193.8896">yes</text><text fill="#000000" font-family="sans-serif" font-size="11" lengthAdjust="spacing" textLength="94" x="1154.5" y="175.4873">build.gradle file?</text><rect fill="#FEFECE" filter="url(#f10owz0njl12bl)" height="33.9688" rx="12.5" ry="12.5" style="stroke:#A80036;stroke-width:1.5;" width="182" x="1110.5" y="216.4839"/><text fill="#000000" font-family="sans-serif" font-size="12" lengthAdjust="spacing" textLength="162" x="1120.5" y="237.6226">GetOssFromJavaGradleFile</text><polygon fill="#FEFECE" filter="url(#f10owz0njl12bl)" points="1347.5,159.6792,1424.5,159.6792,1436.5,171.6792,1424.5,183.6792,1347.5,183.6792,1335.5,171.6792,1347.5,159.6792" style="stroke:#A80036;stroke-width:1.5;"/><text fill="#000000" font-family="sans-serif" font-size="11" lengthAdjust="spacing" textLength="21" x="1390" y="193.8896">yes</text><text fill="#000000" font-family="sans-serif" font-size="11" lengthAdjust="spacing" textLength="77" x="1347.5" y="175.4873">pom.xml file?</text><rect fill="#FEFECE" filter="url(#f10owz0njl12bl)" height="33.9688" rx="12.5" ry="12.5" style="stroke:#A80036;stroke-width:1.5;" width="167" x="1302.5" y="216.4839"/><text fill="#000000" font-family="sans-serif" font-size="12" lengthAdjust="spacing" textLength="147" x="1312.5" y="237.6226">GetOssFromJavaPomFile</text><polygon fill="#FEFECE" filter="url(#f10owz0njl12bl)" points="1501.5,159.6792,1620.5,159.6792,1632.5,171.6792,1620.5,183.6792,1501.5,183.6792,1489.5,171.6792,1501.5,159.6792" style="stroke:#A80036;stroke-width:1.5;"/><text fill="#000000" font-family="sans-serif" font-size="11" lengthAdjust="spacing" textLength="21" x="1565" y="193.8896">yes</text><text fill="#000000" font-family="sans-serif" font-size="11" lengthAdjust="spacing" textLength="119" x="1501.5" y="175.4873">packages.config file?</text><text fill="#000000" font-family="sans-serif" font-size="11" lengthAdjust="spacing" textLength="42" x="1632.5" y="169.085">nothing</text><rect fill="#FEFECE" filter="url(#f10owz0njl12bl)" height="33.9688" rx="12.5" ry="12.5" style="stroke:#A80036;stroke-width:1.5;" width="137" x="1492.5" y="216.4839"/><text fill="#000000" font-family="sans-serif" font-size="12" lengthAdjust="spacing" textLength="117" x="1502.5" y="237.6226">GetOssFromDotNet</text><rect fill="#FEFECE" filter="url(#f10owz0njl12bl)" height="33.9688" rx="12.5" ry="12.5" style="stroke:#A80036;stroke-width:1.5;" width="102" x="1652.5" y="198.8804"/><text fill="#000000" font-family="sans-serif" font-size="12" lengthAdjust="spacing" textLength="82" x="1662.5" y="220.019">File not found</text><ellipse cx="1703.5" cy="278.8491" fill="#FFFFFF" filter="url(#f10owz0njl12bl)" rx="11" ry="11" style="stroke:#000000;stroke-width:1.0;"/><ellipse cx="1703.5" cy="278.8491" fill="#000000" rx="6" ry="6" style="stroke:#7F7F7F;stroke-width:1.0;"/><rect fill="#FEFECE" filter="url(#f10owz0njl12bl)" height="33.9688" rx="12.5" ry="12.5" style="stroke:#A80036;stroke-width:1.5;" width="152" x="799.5" y="329.8491"/><text fill="#000000" font-family="sans-serif" font-size="12" lengthAdjust="spacing" textLength="132" x="809.5" y="350.9878">Generate JSON object</text><ellipse cx="875.5" cy="394.8179" fill="#FFFFFF" filter="url(#f10owz0njl12bl)" rx="11" ry="11" style="stroke:#000000;stroke-width:1.0;"/><ellipse cx="875.5" cy="394.8179" fill="#000000" rx="6" ry="6" style="stroke:#7F7F7F;stroke-width:1.0;"/><polygon fill="#FEFECE" filter="url(#f10owz0njl12bl)" points="825.5,103.9688,925.5,103.9688,937.5,115.9688,925.5,127.9688,825.5,127.9688,813.5,115.9688,825.5,103.9688" style="stroke:#A80036;stroke-width:1.5;"/><text fill="#000000" font-family="sans-serif" font-size="11" lengthAdjust="spacing" textLength="21" x="879.5" y="138.1792">yes</text><text fill="#000000" font-family="sans-serif" font-size="11" lengthAdjust="spacing" textLength="100" x="825.5" y="119.7769">config file exists?</text><text fill="#000000" font-family="sans-serif" font-size="11" lengthAdjust="spacing" textLength="42" x="937.5" y="113.3745">nothing</text><ellipse cx="1001.5" cy="115.9688" fill="#FFFFFF" filter="url(#f10owz0njl12bl)" rx="11" ry="11" style="stroke:#000000;stroke-width:1.0;"/><ellipse cx="1001.5" cy="115.9688" fill="#000000" rx="6" ry="6" style="stroke:#7F7F7F;stroke-width:1.0;"/><line style="stroke:#A80036;stroke-width:1.5;" x1="875.5" x2="875.5" y1="30" y2="50"/><polygon fill="#A80036" points="871.5,40,875.5,50,879.5,40,875.5,44" style="stroke:#A80036;stroke-width:1.0;"/><line style="stroke:#A80036;stroke-width:1.5;" x1="1703.5" x2="1703.5" y1="232.8491" y2="267.8491"/><polygon fill="#A80036" points="1699.5,257.8491,1703.5,267.8491,1707.5,257.8491,1703.5,261.8491" style="stroke:#A80036;stroke-width:1.0;"/><line style="stroke:#A80036;stroke-width:1.5;" x1="108" x2="108" y1="183.6792" y2="216.4839"/><polygon fill="#A80036" points="104,206.4839,108,216.4839,112,206.4839,108,210.4839" style="stroke:#A80036;stroke-width:1.0;"/><line style="stroke:#A80036;stroke-width:1.5;" x1="108" x2="108" y1="250.4526" y2="309.8491"/><polygon fill="#A80036" points="104,299.8491,108,309.8491,112,299.8491,108,303.8491" style="stroke:#A80036;stroke-width:1.0;"/><line style="stroke:#A80036;stroke-width:1.5;" x1="303" x2="303" y1="183.6792" y2="216.4839"/><polygon fill="#A80036" points="299,206.4839,303,216.4839,307,206.4839,303,210.4839" style="stroke:#A80036;stroke-width:1.0;"/><line style="stroke:#A80036;stroke-width:1.5;" x1="303" x2="303" y1="250.4526" y2="309.8491"/><polygon fill="#A80036" points="299,299.8491,303,309.8491,307,299.8491,303,303.8491" style="stroke:#A80036;stroke-width:1.0;"/><line style="stroke:#A80036;stroke-width:1.5;" x1="487.5" x2="487.5" y1="183.6792" y2="216.4839"/><polygon fill="#A80036" points="483.5,206.4839,487.5,216.4839,491.5,206.4839,487.5,210.4839" style="stroke:#A80036;stroke-width:1.0;"/><line style="stroke:#A80036;stroke-width:1.5;" x1="487.5" x2="487.5" y1="250.4526" y2="309.8491"/><polygon fill="#A80036" points="483.5,299.8491,487.5,309.8491,491.5,299.8491,487.5,303.8491" style="stroke:#A80036;stroke-width:1.0;"/><line style="stroke:#A80036;stroke-width:1.5;" x1="667.5" x2="667.5" y1="183.6792" y2="216.4839"/><polygon fill="#A80036" points="663.5,206.4839,667.5,216.4839,671.5,206.4839,667.5,210.4839" style="stroke:#A80036;stroke-width:1.0;"/><line style="stroke:#A80036;stroke-width:1.5;" x1="667.5" x2="667.5" y1="250.4526" y2="309.8491"/><polygon fill="#A80036" points="663.5,299.8491,667.5,309.8491,671.5,299.8491,667.5,303.8491" style="stroke:#A80036;stroke-width:1.0;"/><line style="stroke:#A80036;stroke-width:1.5;" x1="828" x2="828" y1="183.6792" y2="216.4839"/><polygon fill="#A80036" points="824,206.4839,828,216.4839,832,206.4839,828,210.4839" style="stroke:#A80036;stroke-width:1.0;"/><line style="stroke:#A80036;stroke-width:1.5;" x1="828" x2="828" y1="250.4526" y2="309.8491"/><polygon fill="#A80036" points="824,299.8491,828,309.8491,832,299.8491,828,303.8491" style="stroke:#A80036;stroke-width:1.0;"/><line style="stroke:#A80036;stroke-width:1.5;" x1="1010.5" x2="1010.5" y1="183.6792" y2="216.4839"/><polygon fill="#A80036" points="1006.5,206.4839,1010.5,216.4839,1014.5,206.4839,1010.5,210.4839" style="stroke:#A80036;stroke-width:1.0;"/><line style="stroke:#A80036;stroke-width:1.5;" x1="1010.5" x2="1010.5" y1="250.4526" y2="309.8491"/><polygon fill="#A80036" points="1006.5,299.8491,1010.5,309.8491,1014.5,299.8491,1010.5,303.8491" style="stroke:#A80036;stroke-width:1.0;"/><line style="stroke:#A80036;stroke-width:1.5;" x1="1201.5" x2="1201.5" y1="183.6792" y2="216.4839"/><polygon fill="#A80036" points="1197.5,206.4839,1201.5,216.4839,1205.5,206.4839,1201.5,210.4839" style="stroke:#A80036;stroke-width:1.0;"/><line style="stroke:#A80036;stroke-width:1.5;" x1="1201.5" x2="1201.5" y1="250.4526" y2="309.8491"/><polygon fill="#A80036" points="1197.5,299.8491,1201.5,309.8491,1205.5,299.8491,1201.5,303.8491" style="stroke:#A80036;stroke-width:1.0;"/><line style="stroke:#A80036;stroke-width:1.5;" x1="1386" x2="1386" y1="183.6792" y2="216.4839"/><polygon fill="#A80036" points="1382,206.4839,1386,216.4839,1390,206.4839,1386,210.4839" style="stroke:#A80036;stroke-width:1.0;"/><line style="stroke:#A80036;stroke-width:1.5;" x1="1386" x2="1386" y1="250.4526" y2="309.8491"/><polygon fill="#A80036" points="1382,299.8491,1386,309.8491,1390,299.8491,1386,303.8491" style="stroke:#A80036;stroke-width:1.0;"/><line style="stroke:#A80036;stroke-width:1.5;" x1="1561" x2="1561" y1="183.6792" y2="216.4839"/><polygon fill="#A80036" points="1557,206.4839,1561,216.4839,1565,206.4839,1561,210.4839" style="stroke:#A80036;stroke-width:1.0;"/><line style="stroke:#A80036;stroke-width:1.5;" x1="1561" x2="1561" y1="250.4526" y2="309.8491"/><polygon fill="#A80036" points="1557,299.8491,1561,309.8491,1565,299.8491,1561,303.8491" style="stroke:#A80036;stroke-width:1.0;"/><line style="stroke:#A80036;stroke-width:1.5;" x1="152" x2="240" y1="171.6792" y2="171.6792"/><polygon fill="#A80036" points="230,167.6792,240,171.6792,230,175.6792,234,171.6792" style="stroke:#A80036;stroke-width:1.0;"/><line style="stroke:#A80036;stroke-width:1.5;" x1="366" x2="432.5" y1="171.6792" y2="171.6792"/><polygon fill="#A80036" points="422.5,167.6792,432.5,171.6792,422.5,175.6792,426.5,171.6792" style="stroke:#A80036;stroke-width:1.0;"/><line style="stroke:#A80036;stroke-width:1.5;" x1="542.5" x2="594" y1="171.6792" y2="171.6792"/><polygon fill="#A80036" points="584,167.6792,594,171.6792,584,175.6792,588,171.6792" style="stroke:#A80036;stroke-width:1.0;"/><line style="stroke:#A80036;stroke-width:1.5;" x1="741" x2="779" y1="171.6792" y2="171.6792"/><polygon fill="#A80036" points="769,167.6792,779,171.6792,769,175.6792,773,171.6792" style="stroke:#A80036;stroke-width:1.0;"/><line style="stroke:#A80036;stroke-width:1.5;" x1="877" x2="944" y1="171.6792" y2="171.6792"/><polygon fill="#A80036" points="934,167.6792,944,171.6792,934,175.6792,938,171.6792" style="stroke:#A80036;stroke-width:1.0;"/><line style="stroke:#A80036;stroke-width:1.5;" x1="1077" x2="1142.5" y1="171.6792" y2="171.6792"/><polygon fill="#A80036" points="1132.5,167.6792,1142.5,171.6792,1132.5,175.6792,1136.5,171.6792" style="stroke:#A80036;stroke-width:1.0;"/><line style="stroke:#A80036;stroke-width:1.5;" x1="1260.5" x2="1335.5" y1="171.6792" y2="171.6792"/><polygon fill="#A80036" points="1325.5,167.6792,1335.5,171.6792,1325.5,175.6792,1329.5,171.6792" style="stroke:#A80036;stroke-width:1.0;"/><line style="stroke:#A80036;stroke-width:1.5;" x1="1436.5" x2="1489.5" y1="171.6792" y2="171.6792"/><polygon fill="#A80036" points="1479.5,167.6792,1489.5,171.6792,1479.5,175.6792,1483.5,171.6792" style="stroke:#A80036;stroke-width:1.0;"/><line style="stroke:#A80036;stroke-width:1.5;" x1="875.5" x2="875.5" y1="127.9688" y2="144.6792"/><line style="stroke:#A80036;stroke-width:1.5;" x1="875.5" x2="108" y1="144.6792" y2="144.6792"/><line style="stroke:#A80036;stroke-width:1.5;" x1="108" x2="108" y1="144.6792" y2="159.6792"/><polygon fill="#A80036" points="104,149.6792,108,159.6792,112,149.6792,108,153.6792" style="stroke:#A80036;stroke-width:1.0;"/><line style="stroke:#A80036;stroke-width:1.5;" x1="1632.5" x2="1703.5" y1="171.6792" y2="171.6792"/><line style="stroke:#A80036;stroke-width:1.5;" x1="1703.5" x2="1703.5" y1="171.6792" y2="198.8804"/><polygon fill="#A80036" points="1699.5,188.8804,1703.5,198.8804,1707.5,188.8804,1703.5,192.8804" style="stroke:#A80036;stroke-width:1.0;"/><line style="stroke:#A80036;stroke-width:1.5;" x1="108" x2="1561" y1="309.8491" y2="309.8491"/><line style="stroke:#A80036;stroke-width:1.5;" x1="875.5" x2="875.5" y1="309.8491" y2="329.8491"/><polygon fill="#A80036" points="871.5,319.8491,875.5,329.8491,879.5,319.8491,875.5,323.8491" style="stroke:#A80036;stroke-width:1.0;"/><line style="stroke:#A80036;stroke-width:1.5;" x1="875.5" x2="875.5" y1="363.8179" y2="383.8179"/><polygon fill="#A80036" points="871.5,373.8179,875.5,383.8179,879.5,373.8179,875.5,377.8179" style="stroke:#A80036;stroke-width:1.0;"/><line style="stroke:#A80036;stroke-width:1.5;" x1="937.5" x2="990.5" y1="115.9688" y2="115.9688"/><polygon fill="#A80036" points="980.5,111.9688,990.5,115.9688,980.5,119.9688,984.5,115.9688" style="stroke:#A80036;stroke-width:1.0;"/><line style="stroke:#A80036;stroke-width:1.5;" x1="875.5" x2="875.5" y1="83.9688" y2="103.9688"/><polygon fill="#A80036" points="871.5,93.9688,875.5,103.9688,879.5,93.9688,875.5,97.9688" style="stroke:#A80036;stroke-width:1.0;"/><!--MD5=[44415fd7cb224b9baeb9f10471acabdd]
@startuml
start
:Drop project soruce folder;
if (config file exists?) then (yes)
 if(.csproj file?) then (yes)
  :GetOssFromCsprojConfigFile;
 elseif(package.json file?) then (yes)
  :GetOssFromJavascriptFile;
 elseif(app.config file?) then (yes)
  :GetOssFromTfsConfigFile;
 elseif(requirements.txt file?) then (yes)
  :GetPythonComponents;
 elseif(Gemfile file?) then (yes)
  :GetOssFromGemFile;
 elseif(composer.lock file?) then (yes)
  :GetOssFromComposerFile;
 elseif(build.gradle file?) then (yes)
  :GetOssFromJavaGradleFile;
 elseif(pom.xml file?) then (yes)
  :GetOssFromJavaPomFile;
 elseif(packages.config file?) then (yes)
  :GetOssFromDotNet;
 else (nothing)
  :File not found;
  stop
 endif
 :Generate JSON object;
 stop
else (nothing)
 stop
@enduml

PlantUML version 1.2021.11beta5(Unknown compile time)
(GPL source distribution)
Java Runtime: Java(TM) SE Runtime Environment
JVM: Java HotSpot(TM) 64-Bit Server VM
Default Encoding: UTF-8
Language: en
Country: US
--></g></svg>